<svg class="icon" viewBox="0 0 1024 1024" xmlns="http://www.w3.org/2000/svg" width="200" height="200"><defs><style/></defs><path d="M860.262 847.227h-686.28v-442.85a343.137 343.137 0 01686.28 0v442.85zm-613.888-72.34h541.507v-370.51a270.756 270.756 0 00-541.517 0v370.51zM921.252 967.68H112.993a36.173 36.173 0 110-72.34h808.259a36.173 36.173 0 110 72.34zM498.744 694.349a36.178 36.178 0 01-29.214-57.477l88.258-121.006H425.247a51.2 51.2 0 01-46.48-29.026 50.56 50.56 0 015.95-53.821l110.996-140.114a36.178 36.178 0 0156.745 44.902L468.705 443.53h130.412a51.369 51.369 0 0146.039 28.124 50.688 50.688 0 01-4.275 53.11L528.015 679.491a36.137 36.137 0 01-29.27 14.858z"/></svg>