<svg class="icon" viewBox="0 0 1024 1024" xmlns="http://www.w3.org/2000/svg" width="200" height="200"><defs><style/></defs><path d="M514.56 703.39a241.152 241.152 0 00241.224-240.542V286.602a241.224 241.224 0 00-482.448 0v176.246A241.152 241.152 0 00514.56 703.391zM344.284 286.624a170.276 170.276 0 01340.552 0v176.225a170.276 170.276 0 01-340.552 0V286.602zM901.12 460.616a35.476 35.476 0 00-70.948 0 315.612 315.612 0 01-631.224 0 35.476 35.476 0 00-70.948 0 386.345 386.345 0 00352.86 383.882v57.559H324.772a35.374 35.374 0 100 70.743H700.8a35.374 35.374 0 100-70.743H551.808v-57.83A386.38 386.38 0 00901.12 460.616z"/></svg>