<svg class="icon" viewBox="0 0 1024 1024" xmlns="http://www.w3.org/2000/svg" width="200" height="200"><defs><style/></defs><path d="M926.495 318.464L550.738 87.808a73.728 73.728 0 00-77.476 0L97.51 318.464a54.098 54.098 0 0028.442 100.193h772.096a54.103 54.103 0 0028.447-100.193zm-747.556 31.114l330.634-202.957a4.608 4.608 0 014.854 0L845.06 349.578H178.94zm88.325 423.127V535.521a34.632 34.632 0 00-69.263 0v237.184a34.632 34.632 0 0069.263 0zm283.98 0V535.521a34.632 34.632 0 00-69.263 0v237.184a34.632 34.632 0 0069.269 0zm283.987 0V535.521a34.632 34.632 0 00-69.264 0v237.184a34.632 34.632 0 0069.269 0zm63.488 110.53H131.072a34.545 34.545 0 100 69.085h767.652a34.545 34.545 0 100-69.084z"/></svg>