<svg class="icon" viewBox="0 0 1024 1024" xmlns="http://www.w3.org/2000/svg" width="200" height="200"><defs><style/></defs><path d="M244.634 794.91h-93.696a73.933 73.933 0 01-73.846-73.855v-318.05a73.933 73.933 0 0173.84-73.856h93.696a73.933 73.933 0 0173.836 73.856v318.05a73.933 73.933 0 01-73.83 73.856zm-93.696-396.538a4.634 4.634 0 00-4.608 4.633v318.05a4.634 4.634 0 004.608 4.633h93.696a4.634 4.634 0 004.608-4.633v-318.05a4.634 4.634 0 00-4.608-4.633h-93.696zm718.95 396.539h-93.696a73.938 73.938 0 01-73.856-73.856v-177.7a73.938 73.938 0 0173.856-73.851h93.696a73.938 73.938 0 0173.85 73.85v177.7a73.938 73.938 0 01-73.85 73.857zm-93.696-256.19a4.644 4.644 0 00-4.639 4.634v177.7a4.644 4.644 0 004.639 4.633h93.696a4.639 4.639 0 004.634-4.633v-177.7a4.639 4.639 0 00-4.634-4.634h-93.696zm-218.931 256.19h-93.696a73.933 73.933 0 01-73.846-73.856V155.776a73.933 73.933 0 0173.846-73.856h93.696a73.933 73.933 0 0173.85 73.856v565.279a73.933 73.933 0 01-73.85 73.856zm-93.696-643.769a4.634 4.634 0 00-4.608 4.634v565.279a4.634 4.634 0 004.608 4.633h93.696a4.639 4.639 0 004.633-4.633V155.776a4.639 4.639 0 00-4.633-4.634h-93.696zM933.069 947.2H90.93a34.611 34.611 0 010-69.222h842.14a34.611 34.611 0 010 69.222z"/></svg>