<svg class="icon" viewBox="0 0 1024 1024" xmlns="http://www.w3.org/2000/svg" width="200" height="200"><defs><style/></defs><path d="M826.312 224.138h-55.609a2.56 2.56 0 01-2.319-1.592A151.777 151.777 0 00629.55 133.12h-235.1a151.772 151.772 0 00-138.834 89.426 2.56 2.56 0 01-2.324 1.592h-55.604A150.738 150.738 0 0046.08 373.652v372.844A150.743 150.743 0 00197.688 896h628.624A150.738 150.738 0 00977.92 746.496V373.647a150.738 150.738 0 00-151.608-149.509zm79.186 522.358a78.213 78.213 0 01-79.186 77.02H197.688a78.213 78.213 0 01-79.186-77.02V373.652a78.218 78.218 0 0179.186-77.025h55.609a75.085 75.085 0 0068.475-44.544 79.278 79.278 0 0172.704-46.448h235.1a79.283 79.283 0 0172.704 46.448 75.08 75.08 0 0068.47 44.544h55.608a78.213 78.213 0 0179.186 77.025v372.844zM509.722 373.069a185.636 185.636 0 10185.477 185.636 185.769 185.769 0 00-185.462-185.641zm0 298.788a113.152 113.152 0 11113.054-113.152 113.234 113.234 0 01-113.039 113.147zM772.096 348.19a40.745 40.745 0 1040.71 40.745 40.73 40.73 0 00-40.71-40.745z"/></svg>