<svg class="icon" viewBox="0 0 1024 1024" xmlns="http://www.w3.org/2000/svg" width="200" height="200"><defs><style/></defs><path d="M512 71.68A440.32 440.32 0 10952.32 512 440.832 440.832 0 00512 71.68zm0 809.62A369.3 369.3 0 11881.3 512 369.72 369.72 0 01512 881.3zm158.208-527.508a35.507 35.507 0 00-50.212 0L512 461.783 404.03 353.792a35.507 35.507 0 10-50.238 50.237L461.788 512 353.792 619.97a35.507 35.507 0 0050.212 50.218L512 562.217l107.98 107.991a35.507 35.507 0 0050.213-50.217L562.223 512l107.985-107.97a35.507 35.507 0 000-50.238z"/></svg>