<svg class="icon" viewBox="0 0 1024 1024" xmlns="http://www.w3.org/2000/svg" width="200" height="200"><defs><style/></defs><path d="M810.199 92.16H401.976A162.95 162.95 0 00240.01 241.183h-26.214A162.985 162.985 0 0051.2 404.178v243.2a162.816 162.816 0 00122.025 157.87 7.88 7.88 0 015.796 7.782l-.302 57.242a55.808 55.808 0 0082.432 49.664l200.985-108.544a8.105 8.105 0 013.845-.978h210.596A162.98 162.98 0 00839.178 647.42v-243.2a162.985 162.985 0 00-162.6-162.995H309.692a93.573 93.573 0 0192.283-79.734H810.2a93.66 93.66 0 0193.44 93.665v203.597a93.88 93.88 0 01-21.422 59.679 34.616 34.616 0 1053.274 44.221 163.476 163.476 0 0037.309-103.9V255.155A162.985 162.985 0 00810.199 92.16zm-40.151 312.018v243.2a93.655 93.655 0 01-93.44 93.665H465.997a77.414 77.414 0 00-36.65 9.267l-181.344 97.977.179-34.873a77.097 77.097 0 00-57.718-75.294 93.553 93.553 0 01-70.083-90.722v-243.2a93.66 93.66 0 0193.44-93.665h462.792a93.655 93.655 0 0193.435 93.645zM336.056 532.342a36.383 36.383 0 10-36.382 36.49 36.424 36.424 0 0036.382-36.49zm141.758 0a36.383 36.383 0 10-36.378 36.47 36.424 36.424 0 0036.378-36.47zm141.762 0a36.383 36.383 0 10-36.382 36.47 36.429 36.429 0 0036.382-36.47z"/></svg>