<svg class="icon" viewBox="0 0 1024 1024" xmlns="http://www.w3.org/2000/svg" width="200" height="200"><defs><style/></defs><path d="M684.652 496.174H552.673a4.7 4.7 0 01-4.685-4.705v-220.34a35.041 35.041 0 10-70.087 0v220.34a74.988 74.988 0 0074.752 75.033H684.63a35.164 35.164 0 00.02-70.328zM818.57 827.213A429.102 429.102 0 00852.183 275.2a133.335 133.335 0 10-213.33-152.714 425.984 425.984 0 00-258.048-.256 133.217 133.217 0 10-213.709 152.453 429.117 429.117 0 0032.072 551.327l-90.762 92.006a35.251 35.251 0 00.256 49.73 34.96 34.96 0 0049.556-.25l93.138-94.428a425.324 425.324 0 00514.852 1.024l92.114 93.388a34.96 34.96 0 0049.556.251 35.251 35.251 0 00.256-49.73zm-59.453-710.805a63.263 63.263 0 0146.48 105.984 429.63 429.63 0 00-101.858-72.99 62.92 62.92 0 0155.378-32.994zm-498.478 0a63.191 63.191 0 0155.173 32.65 429.46 429.46 0 00-102.072 72.894 63.278 63.278 0 0146.899-105.544zm-108.636 414.93A357.437 357.437 0 11509.44 890.01a358.456 358.456 0 01-357.437-358.672z"/></svg>