<svg class="icon" viewBox="0 0 1024 1024" xmlns="http://www.w3.org/2000/svg" width="200" height="200"><defs><style/></defs><path d="M488.402 655.247a77.962 77.962 0 01-50.54-18.432L333.583 548.46a35.328 35.328 0 0145.645-53.868l104.274 88.346a7.741 7.741 0 0010.808-.814L674.243 375.91a35.328 35.328 0 0153.207 46.418L547.528 628.536a78.254 78.254 0 01-59.126 26.711zM514.56 952.32a437.76 437.76 0 11437.76-437.76 438.272 438.272 0 01-437.76 437.76zm0-804.91a367.155 367.155 0 10367.155 367.15A367.57 367.57 0 00514.56 147.41z"/></svg>