<svg class="icon" viewBox="0 0 1024 1024" xmlns="http://www.w3.org/2000/svg" width="200" height="200"><defs><style/></defs><path d="M793.43 512L523.135 781.141a42.155 42.155 0 000 59.819 42.624 42.624 0 0060.075 0l300.373-299.093a42.155 42.155 0 000-59.734L583.211 183.04a42.624 42.624 0 00-60.075 0 42.155 42.155 0 000 59.819L793.429 512zM225.791 781.141a42.155 42.155 0 000 59.819 42.624 42.624 0 0060.075 0L586.24 541.867a42.155 42.155 0 000-59.734L285.867 183.04a42.624 42.624 0 00-60.075 0 42.155 42.155 0 000 59.819L496.085 512 225.792 781.141z"/></svg>