<svg class="icon" viewBox="0 0 1024 1024" xmlns="http://www.w3.org/2000/svg" width="200" height="200"><defs><style/></defs><path d="M230.57 512l270.294 269.141a42.155 42.155 0 010 59.819 42.624 42.624 0 01-60.075 0L140.416 541.867a42.155 42.155 0 010-59.734L440.789 183.04a42.624 42.624 0 0160.075 0 42.155 42.155 0 010 59.819L230.571 512zm567.638 269.141a42.155 42.155 0 010 59.819 42.624 42.624 0 01-60.075 0L437.76 541.867a42.155 42.155 0 010-59.734L738.133 183.04a42.624 42.624 0 0160.075 0 42.155 42.155 0 010 59.819L527.915 512l270.293 269.141z"/></svg>