<svg class="icon" viewBox="0 0 1024 1024" xmlns="http://www.w3.org/2000/svg" width="200" height="200"><defs><style/></defs><path d="M514.56 71.68a442.88 442.88 0 10442.88 442.88A443.392 443.392 0 00514.56 71.68zm0 814.326A371.446 371.446 0 11886.006 514.56 371.866 371.866 0 01514.56 886.006zm0-657.173a178.78 178.78 0 00-178.58 178.58 35.717 35.717 0 1071.434 0A107.146 107.146 0 11514.56 514.56a35.722 35.722 0 00-35.717 35.717c0 1.024.215 1.976.302 2.975-.082.998-.302 1.96-.302 2.98v95.836a35.717 35.717 0 1071.434 0V582.4a178.59 178.59 0 00-35.717-353.567zm1.787 496.45a41.672 41.672 0 1041.666 41.673 41.672 41.672 0 00-41.666-41.672z"/></svg>