<svg class="icon" viewBox="0 0 1024 1024" xmlns="http://www.w3.org/2000/svg" width="200" height="200"><defs><style/></defs><path d="M864 451.2c-9.6 0-16-3.2-22.4-9.6-12.8-12.8-12.8-32 0-44.8l112-108.8-112-108.8c-12.8-12.8-12.8-32 0-44.8 12.8-12.8 32-12.8 44.8 0L1011.2 256c6.4 6.4 12.8 19.2 12.8 32s-6.4 25.6-12.8 32L886.4 441.6c-6.4 6.4-12.8 9.6-22.4 9.6z"/><path d="M960 1024H64c-35.2 0-64-28.8-64-64V64C0 28.8 28.8 0 64 0h576c19.2 0 32 12.8 32 32s-12.8 32-32 32H64v896h896V640c0-19.2 12.8-32 32-32s32 12.8 32 32v320c0 35.2-28.8 64-64 64z"/><path d="M288 752c-19.2 0-32-12.8-32-32 0-256 208-464 464-464 19.2 0 32 12.8 32 32s-12.8 32-32 32c-220.8 0-400 179.2-400 400 0 19.2-12.8 32-32 32z"/><path d="M928 320H704c-19.2 0-32-12.8-32-32s12.8-32 32-32h224c19.2 0 32 12.8 32 32s-12.8 32-32 32z"/></svg>