<svg class="icon" viewBox="0 0 1024 1024" xmlns="http://www.w3.org/2000/svg" width="200" height="200"><defs><style/></defs><path d="M890.839 196.803h-269.86a2.237 2.237 0 01-1.024-.241l-160.481-80.384a82.176 82.176 0 00-36.654-8.658H133.16a82.12 82.12 0 00-81.96 82.089v644.782a82.12 82.12 0 0081.961 82.089h757.678a82.12 82.12 0 0081.961-82.089v-555.5a82.12 82.12 0 00-81.961-82.088zm-757.678-9.472H422.82a2.248 2.248 0 011.024.24l160.496 80.384a82.304 82.304 0 0036.655 8.668h269.86a2.278 2.278 0 012.273 2.274v91.515h-762.24V189.609a2.278 2.278 0 012.273-2.278zm757.678 649.338H133.161a2.278 2.278 0 01-2.273-2.278V450.222h762.224v384.169a2.278 2.278 0 01-2.273 2.278z"/></svg>