<svg class="icon" viewBox="0 0 1024 1024" xmlns="http://www.w3.org/2000/svg" width="200" height="200"><defs><style/></defs><path d="M313.108 551.385c-27.57-41.354-41.354-88.616-41.354-141.785 0-90.585 37.415-165.415 96.492-210.708-19.692-35.446-59.077-61.046-110.277-61.046-86.646 0-135.877 70.892-135.877 151.63 0 43.324 13.785 80.74 43.323 106.34 15.754 15.753 29.539 35.446 29.539 55.138s-7.877 39.384-57.108 61.046C66.954 543.508 1.97 586.83 0 651.815c1.97 43.323 29.538 76.8 70.892 76.8h64.985c9.846 0 19.692-5.907 25.6-15.753 31.508-57.108 90.585-92.554 139.815-118.154 17.723-7.877 21.662-29.539 11.816-43.323zM888.123 512c-49.23-21.662-57.108-39.385-57.108-61.046s13.785-41.354 29.539-55.139c29.538-27.569 43.323-63.015 43.323-106.338 0-80.739-47.262-151.63-135.877-151.63-51.2 0-90.585 25.6-112.246 61.045 59.077 45.293 96.492 120.123 96.492 210.708 0 53.17-13.784 100.43-41.354 141.785-9.846 15.753-3.938 35.446 11.816 43.323 49.23 23.63 108.307 61.046 139.815 118.154 5.908 9.846 15.754 15.753 25.6 15.753h64.985c41.354 0 68.923-33.477 68.923-76.8C1024 586.831 959.015 543.508 888.123 512zM643.938 655.754c-53.169-23.63-63.015-45.292-63.015-66.954 0-23.63 15.754-45.292 33.477-61.046 31.508-29.539 49.23-70.892 49.23-118.154 0-88.615-53.168-165.415-149.66-165.415s-149.662 76.8-149.662 165.415c0 47.262 17.723 88.615 49.23 118.154 17.724 17.723 33.477 39.384 33.477 61.046 0 23.63-7.877 43.323-63.015 66.954-78.77 33.477-153.6 70.892-155.57 141.784 0 47.262 35.447 86.647 80.74 86.647h409.6c45.292 0 80.738-39.385 80.738-86.647-1.97-68.923-76.8-106.338-155.57-141.784z"/></svg>