<svg class="icon" viewBox="0 0 1024 1024" xmlns="http://www.w3.org/2000/svg" width="200" height="200"><defs><style/></defs><path d="M117.029 1024C51.2 1024 0 972.8 0 906.971V117.03C0 51.2 51.2 0 117.029 0H460.8c14.629 0 21.943 14.629 21.943 21.943S475.429 51.2 460.8 51.2H117.029C80.457 51.2 51.2 80.457 51.2 117.029v782.628c0 36.572 29.257 65.829 65.829 65.829h782.628c36.572 0 65.829-29.257 65.829-65.829V585.143c0-14.629 14.628-21.943 21.943-21.943 21.942 0 36.571 7.314 36.571 21.943V906.97c0 65.83-51.2 117.03-117.029 117.03H117.03z"/><path d="M482.743 753.371h7.314c7.314 0 14.629-7.314 14.629-7.314l190.171-175.543c14.629-14.628 14.629-36.571 7.314-51.2-7.314 0-14.628 0-29.257-7.314-7.314 0-14.628 7.314-21.943 14.629L519.314 643.657c14.629-248.686 270.629-512 490.057-577.828 7.315 0 14.629-7.315 14.629-14.629V21.943C1016.686 7.314 1002.057 0 987.429 0h-7.315C746.057 73.143 475.43 365.714 453.486 636.343L343.77 504.686c-7.314-7.315-14.628-7.315-21.942-7.315-7.315 0-14.629 0-21.943 7.315-14.629 14.628-14.629 36.571 0 51.2L460.8 746.057c0 7.314 7.314 7.314 21.943 7.314zm0 0"/></svg>