<svg class="icon" viewBox="0 0 1024 1024" xmlns="http://www.w3.org/2000/svg" width="200" height="200"><defs><style/></defs><path d="M456.602 608.681a36.588 36.588 0 01-26-10.808 215.583 215.583 0 01-63.529-149.151 203.807 203.807 0 0159.423-148.69L589.67 136.294c80.707-80.972 213.868-79.104 296.827 4.137a215.619 215.619 0 0163.534 149.151 203.776 203.776 0 01-59.392 148.68L785.367 540.093a36.838 36.838 0 01-51.057-53.13l104.791-101.376a130.13 130.13 0 0037.376-94.781 142.07 142.07 0 00-41.984-98.212c-54.302-54.482-140.8-56.32-192.829-4.137L478.479 352.22a130.504 130.504 0 00-37.888 95.263 142.095 142.095 0 0041.984 98.217 36.977 36.977 0 010 52.178 36.588 36.588 0 01-25.973 10.803zM287.293 955.028a214.743 214.743 0 01-152.207-63.672c-82.852-83.138-84.818-216.484-4.47-297.472l104.96-110.807a36.828 36.828 0 1153.305 50.837l-105.913 111.79c-52.019 52.198-50.176 138.992 4.122 193.474s140.8 56.32 192.824 4.132l163.19-163.748a130.478 130.478 0 0037.888-95.232 142.106 142.106 0 00-41.984-98.217 36.833 36.833 0 0151.994-52.183 215.629 215.629 0 0163.534 149.156 203.812 203.812 0 01-59.392 148.68L431.913 895.488a203.09 203.09 0 01-144.62 59.54z"/></svg>