<svg class="icon" viewBox="0 0 1024 1024" xmlns="http://www.w3.org/2000/svg" width="200" height="200"><defs><style/></defs><path d="M887.467 273.067h-512c-20.48 0-34.134-13.654-34.134-34.134s13.654-34.133 34.134-34.133h512c20.48 0 34.133 13.653 34.133 34.133s-13.653 34.134-34.133 34.134zm-682.667 0h-68.267c-20.48 0-34.133-13.654-34.133-34.134s13.653-34.133 34.133-34.133H204.8c20.48 0 34.133 13.653 34.133 34.133s-13.653 34.134-34.133 34.134zm682.667 273.066h-512c-20.48 0-34.134-13.653-34.134-34.133s13.654-34.133 34.134-34.133h512c20.48 0 34.133 13.653 34.133 34.133s-13.653 34.133-34.133 34.133zm-682.667 0h-68.267c-20.48 0-34.133-13.653-34.133-34.133s13.653-34.133 34.133-34.133H204.8c20.48 0 34.133 13.653 34.133 34.133s-13.653 34.133-34.133 34.133zM887.467 819.2h-512c-20.48 0-34.134-13.653-34.134-34.133s13.654-34.134 34.134-34.134h512c20.48 0 34.133 13.654 34.133 34.134S907.947 819.2 887.467 819.2zm-682.667 0h-68.267c-20.48 0-34.133-13.653-34.133-34.133s13.653-34.134 34.133-34.134H204.8c20.48 0 34.133 13.654 34.133 34.134S225.28 819.2 204.8 819.2z"/></svg>