<svg class="icon" viewBox="0 0 1024 1024" xmlns="http://www.w3.org/2000/svg" width="200" height="200"><defs><style/></defs><path d="M499.136 64c-94.976 0-189.952 36.224-262.4 108.736-145.024 144.896-145.024 379.84 0 524.736L499.136 960l262.4-262.528c145.088-145.024 145.088-379.968 0-524.736C689.152 100.224 594.112 64 499.136 64zm0 512c-35.328 0-67.328-14.4-90.496-37.504-23.168-23.104-37.504-55.104-37.504-90.496 0-70.72 57.28-128 128-128s128 57.28 128 128c0 35.392-14.4 67.392-37.504 90.496S534.464 576 499.136 576z"/></svg>