<svg class="icon" viewBox="0 0 1024 1024" xmlns="http://www.w3.org/2000/svg" width="200" height="200"><defs><style/></defs><path d="M815.39 112.64H198.375A157.84 157.84 0 0040.96 270.551v379.781a157.844 157.844 0 00157.414 157.911h14.792a1.628 1.628 0 011.577 1.275l10.107 45.717a77.778 77.778 0 00120.32 47.385l135.787-94.085a1.628 1.628 0 01.922-.292h333.517A157.84 157.84 0 00972.8 650.333V270.55a157.84 157.84 0 00-157.41-157.91zm81.122 537.692a81.352 81.352 0 01-81.132 81.408h-333.5a77.425 77.425 0 00-44.273 13.824L301.82 839.68a1.618 1.618 0 01-2.504-.988l-10.107-45.717a77.476 77.476 0 00-76.047-61.23h-14.787a81.357 81.357 0 01-81.136-81.408V270.551a81.357 81.357 0 0181.136-81.408h617.017a81.352 81.352 0 0181.131 81.408v379.781zM337.987 424.684a49.244 49.244 0 1049.085 49.244 49.152 49.152 0 00-49.085-49.244zm184.09 0a49.244 49.244 0 1049.09 49.244 49.152 49.152 0 00-49.09-49.244zm177.07 0a49.244 49.244 0 1049.09 49.244 49.152 49.152 0 00-49.09-49.244z"/></svg>