<svg class="icon" viewBox="0 0 1024 1024" xmlns="http://www.w3.org/2000/svg" width="200" height="200"><defs><style/></defs><path d="M512 1024C229.23 1024 0 794.77 0 512S229.23 0 512 0s512 229.23 512 512-229.23 512-512 512zM255.234 574.788c34.96 0 63.299-28.34 63.299-63.299 0-34.958-28.34-63.298-63.299-63.298-34.958 0-63.297 28.34-63.297 63.298 0 34.96 28.339 63.299 63.297 63.299zm256.256 0c34.958 0 63.298-28.34 63.298-63.299 0-34.958-28.34-63.298-63.299-63.298-34.958 0-63.298 28.34-63.298 63.298 0 34.96 28.34 63.299 63.298 63.299zm257.276 0c34.958 0 63.297-28.34 63.297-63.299 0-34.958-28.339-63.298-63.297-63.298-34.96 0-63.299 28.34-63.299 63.298 0 34.96 28.34 63.299 63.299 63.299z"/></svg>