<svg class="icon" viewBox="0 0 1024 1024" xmlns="http://www.w3.org/2000/svg" width="200" height="200"><defs><style/></defs><path d="M399.787 143.787l-253.44 253.44c-13.227 13.226-34.987 13.226-48.214 0-13.226-13.227-13.226-34.987 0-48.214l253.44-253.44c13.227-13.226 34.987-13.226 48.214 0 13.226 13.227 13.226 34.56 0 48.214z"/><path d="M375.467 938.667c-18.774 0-34.134-15.36-34.134-34.134V119.467c0-18.774 15.36-34.134 34.134-34.134s34.133 15.36 34.133 34.134v785.066c0 18.774-15.36 34.134-34.133 34.134zm248.746-58.454l253.44-253.44c13.227-13.226 34.987-13.226 48.214 0 13.226 13.227 13.226 34.987 0 48.214l-253.44 253.44c-13.227 13.226-34.987 13.226-48.214 0-13.226-13.227-13.226-34.56 0-48.214z"/><path d="M648.533 85.333c18.774 0 34.134 15.36 34.134 34.134v785.066c0 18.774-15.36 34.134-34.134 34.134s-34.133-15.36-34.133-34.134V119.467c0-18.774 15.36-34.134 34.133-34.134z"/></svg>