<svg class="icon" viewBox="0 0 1024 1024" xmlns="http://www.w3.org/2000/svg" width="200" height="200"><defs><style/></defs><path d="M642.668 434.632h.737c33.142-.461 69.079-.681 104.253-.891 49.429-.297 96.113-.579 132.741-1.495a51.671 51.671 0 0047.58-68.685A441.892 441.892 0 00659.64 95.744a51.666 51.666 0 00-68.567 48.85c-.025 30.065-.066 87.429-.077 238.254a51.748 51.748 0 0051.672 51.784zm14.417-269.2A376.12 376.12 0 01858.46 366.648c-32.41.574-70.886.804-111.201 1.05-30.26.18-61.092.369-90.23.712.005-112.272.041-169.641.056-202.978zm281.007 326.78a52.055 52.055 0 00-37.53-16.016H551.89a4.367 4.367 0 01-4.424-4.368c-.297-53.36-.118-126.745.072-204.446.107-46.986.225-95.964.25-143.97a51.6 51.6 0 00-54.19-51.712A438.784 438.784 0 0077.252 529.838c10.29 223.483 193.413 406.6 416.89 416.876 6.84.317 13.62.47 20.404.47a438.784 438.784 0 00437.76-416.767 51.999 51.999 0 00-14.213-38.206zm-794.87 34.605A372.736 372.736 0 01481.75 138.685c-.04 43.008-.143 86.58-.24 128.538-.185 77.824-.37 151.347-.072 204.974a69.847 69.847 0 001.92 15.662L236.134 754.324a369.53 369.53 0 01-92.912-227.507zm353.93 353.951a368.64 368.64 0 01-213.207-80.896l243.256-262.19a69.719 69.719 0 0024.674 4.562h333.424a372.608 372.608 0 01-388.147 338.524z"/></svg>