<svg class="icon" viewBox="0 0 1024 1024" xmlns="http://www.w3.org/2000/svg" width="200" height="200"><defs><style/></defs><path d="M910.286 912.05A179.025 179.025 0 01785.148 962h-.3a181.95 181.95 0 01-125.475-49.988 167.925 167.925 0 01-51.937-120.674 168.037 168.037 0 0151.937-120.675 181.8 181.8 0 01125.213-49.95c46.95 0 92.775 18.225 125.737 49.987 16.238 15.6 29.025 33.825 38.025 54.225 9.225 21.075 13.913 43.425 13.913 66.45a167.925 167.925 0 01-51.975 120.675zm-29.85-212.625a136.688 136.688 0 00-95.438-38.1c-35.737 0-70.612 13.912-95.7 38.1a128.025 128.025 0 00-39.637 91.95 127.987 127.987 0 0039.6 91.913 138.45 138.45 0 0095.4 38.1h.375c35.512 0 70.275-13.876 95.362-38.1 12.413-11.888 22.2-25.8 29.025-41.325 7.05-16.013 10.613-33.038 10.613-50.588a127.987 127.987 0 00-39.6-91.95zm-12.413 114h-166.35c-13.312 0-22.95-9.3-22.95-22.05 0-12.787 9.638-22.087 22.95-22.087h166.35c13.313 0 22.95 9.3 22.95 22.087 0 12.75-9.637 22.05-22.95 22.05zM755.898 598.438a29.25 29.25 0 01-19.837-7.613l-1.463-1.162a389.437 389.437 0 00-230.85-74.963c-211.575 0-383.7 165.562-383.7 369.075-.074 15.3-13.05 27.75-28.95 27.75-15.862 0-28.875-12.487-28.912-27.825a409.95 409.95 0 0179.725-243 439.35 439.35 0 01203.925-153.187l26.475-9.788-21.525-17.738c-52.313-43.162-82.275-105.75-82.275-171.712C268.511 163.513 374.036 62 503.748 62c129.713 0 235.275 101.513 235.275 226.275 0 65.963-30.037 128.55-82.35 171.712l-21.525 17.738 26.513 9.788c36.9 13.575 72 32.1 104.362 55.087l7.875 6.225a27.263 27.263 0 0110.95 21.75c0 15.337-12.975 27.825-28.95 27.863zm-74.775-310.163c0-94.088-79.575-170.625-177.375-170.625s-177.375 76.537-177.375 170.625c0 94.05 79.576 170.588 177.375 170.587 97.8 0 177.375-76.537 177.375-170.587z"/></svg>