<svg class="icon" viewBox="0 0 1024 1024" xmlns="http://www.w3.org/2000/svg" width="200" height="200"><defs><style/></defs><path d="M702.172 967.68H313.697c-80.384 0-145.766-60.928-145.766-135.798V355.958a33.116 33.116 0 1166.237 0v475.924c0 38.349 35.676 69.545 79.534 69.545h388.48c43.853 0 79.534-31.196 79.534-69.545V355.958a33.116 33.116 0 1166.233 0v475.924c-.01 74.87-65.403 135.798-145.777 135.798zM335.724 714.824a33.121 33.121 0 01-33.117-33.127v-214.21a33.116 33.116 0 1166.233 0v214.21a33.121 33.121 0 01-33.116 33.127zm168.898 0a33.121 33.121 0 01-33.116-33.127v-214.21a33.116 33.116 0 1166.237 0v214.21a33.121 33.121 0 01-33.116 33.127zm168.904 0a33.126 33.126 0 01-33.122-33.127v-214.21a33.121 33.121 0 1166.238 0v214.21a33.121 33.121 0 01-33.116 33.127zm225.198-436.158H130.396a33.126 33.126 0 010-66.253h768.328a33.126 33.126 0 010 66.253zm-225.198-86.098a33.121 33.121 0 01-33.122-33.126 42.035 42.035 0 00-41.984-41.984H410.824a42.03 42.03 0 00-41.984 41.984 33.116 33.116 0 11-66.233 0A108.355 108.355 0 01410.824 51.2H598.42a108.355 108.355 0 01108.222 108.247 33.121 33.121 0 01-33.116 33.121z"/></svg>