<svg class="icon" viewBox="0 0 1024 1024" xmlns="http://www.w3.org/2000/svg" width="200" height="200"><defs><style/></defs><path d="M115.896 410.394A39.096 39.096 0 0176.8 371.302V248.873A172.268 172.268 0 01248.873 76.8H366.08a39.096 39.096 0 110 78.188H248.873a93.993 93.993 0 00-93.885 93.885v122.43a39.096 39.096 0 01-39.092 39.09zM371.308 942.08H248.873A172.268 172.268 0 0176.8 770.007V655.396a39.096 39.096 0 1178.188 0v114.611a93.993 93.993 0 0093.885 93.885h122.435a39.096 39.096 0 110 78.188zm398.699 0H652.8a39.096 39.096 0 110-78.188h117.217a93.993 93.993 0 0093.886-93.885V650.199a39.096 39.096 0 0178.187 0v119.834A172.262 172.262 0 01770.007 942.08zm132.982-531.686a39.096 39.096 0 01-39.097-39.092V248.873a93.993 93.993 0 00-93.885-93.885H644.972a39.096 39.096 0 110-78.188h125.035A172.268 172.268 0 01942.08 248.873v122.43a39.096 39.096 0 01-39.091 39.09zM717.942 551.142H300.938a39.096 39.096 0 010-78.187h417.004a39.096 39.096 0 110 78.187z"/></svg>