<svg class="icon" viewBox="0 0 1024 1024" xmlns="http://www.w3.org/2000/svg" width="200" height="200"><defs><style/></defs><path d="M812.78 977.92a75.366 75.366 0 01-50.837-19.81L596.48 807.63a3.19 3.19 0 00-2.437-.85 3.159 3.159 0 00-2.304 1.172l-66.35 79.217a75.837 75.837 0 01-132.173-32.128l-47.39-211.758a3.313 3.313 0 00-2.192-2.412l-214.697-70.6a75.889 75.889 0 01-11.11-139.514l718.74-371.103a75.853 75.853 0 01110.428 73.124l-58.368 774.891a75.382 75.382 0 01-47.616 64.8 76.227 76.227 0 01-28.231 5.452zM594.19 734.208a76.247 76.247 0 0151.093 19.727l165.463 150.482a3.302 3.302 0 005.514-2.191l58.37-774.886a3.292 3.292 0 00-4.797-3.17l-718.73 371.082a3.297 3.297 0 00.48 6.063l214.713 70.589a76.227 76.227 0 0150.345 55.511l47.386 211.753a3.297 3.297 0 005.744 1.393l66.345-79.217a76.221 76.221 0 0153.008-26.977q2.534-.159 5.068-.159zm-96.916 13.25A36.28 36.28 0 01461.153 714l-7.388-94.305a92.554 92.554 0 0124.233-69.857l241.664-261.345a36.285 36.285 0 1153.248 49.285L531.246 599.122a19.758 19.758 0 00-5.171 14.9l7.388 94.31a36.285 36.285 0 01-33.326 39.014 44.032 44.032 0 01-2.862.097z"/></svg>