<svg class="icon" viewBox="0 0 1024 1024" xmlns="http://www.w3.org/2000/svg" width="200" height="200"><defs><style/></defs><path d="M755.343 443.791a191.488 191.488 0 10-188.815-157.47L397.276 357.33a179.738 179.738 0 10-34.253 267.94L513.961 731.5a159.053 159.053 0 00-11.873 60.236 161.321 161.321 0 1056.832-122.199L416.527 569.303a178.821 178.821 0 0018.432-144.799l159.985-67.128a192 192 0 00160.4 86.415zm-596.68 32.502a103.603 103.603 0 11103.604 103.235 103.537 103.537 0 01-103.603-103.235zM663.25 707.615a84.122 84.122 0 11-84.419 84.121 84.367 84.367 0 0184.419-84.121zm92.093-569.703A114.688 114.688 0 11640.225 252.6a115.036 115.036 0 01115.118-114.688z"/></svg>