<svg class="icon" viewBox="0 0 1024 1024" xmlns="http://www.w3.org/2000/svg" width="200" height="200"><defs><style/></defs><path d="M515.471 865.28c-336.066 0-450.739-275.625-470.318-330.88a73.16 73.16 0 01.471-50.079C65.592 431.237 181.33 165.857 500.48 153.958c320.563-11.99 453.51 265.529 476.892 321.275a73.108 73.108 0 012.11 50.857c-18.417 56.638-127.34 339.19-464.01 339.19zM109.783 511.406c23.7 66.893 122.998 285.148 405.688 285.148 282.025 0 376.55-223.314 398.807-291.753a4.157 4.157 0 00-.133-2.939c-28.533-68.04-142.459-289.244-411.136-279.234-268.866 10.035-368.957 221.384-393.216 285.921a4.178 4.178 0 000 2.852zm402.258 178.622A182.124 182.124 0 11693.76 507.904a182.134 182.134 0 01-181.719 182.124zm0-295.522a113.398 113.398 0 10113.152 113.398 113.408 113.408 0 00-113.152-113.398z"/></svg>