<svg class="icon" viewBox="0 0 1024 1024" xmlns="http://www.w3.org/2000/svg" width="200" height="200"><defs><style/></defs><path d="M192.037 287.953h640.124c17.673 0 32-14.327 32-32s-14.327-32-32-32H192.037c-17.673 0-32 14.327-32 32s14.327 32 32 32zm-.009 255.217h393.608c17.673 0 32-14.327 32-32s-14.327-32-32-32H192.028c-17.673 0-32 14.327-32 32s14.327 32 32 32zm640.133 192.632H192.037c-17.673 0-32 14.327-32 32s14.327 32 32 32h640.124c17.673 0 32-14.327 32-32s-14.327-32-32-32zm-126.999-64.208l160-160-160-160z"/></svg>