<svg class="icon" viewBox="0 0 1024 1024" xmlns="http://www.w3.org/2000/svg" width="200" height="200"><defs><style/></defs><path d="M977.92 299.878A156.616 156.616 0 00821.565 143.36h-619.13A156.616 156.616 0 0046.08 299.878v424.244A156.616 156.616 0 00202.435 880.64h619.13a156.16 156.16 0 00125.44-63.165 29.747 29.747 0 0011.09-17.158 155.648 155.648 0 0019.825-76.195V299.878zM675.17 507.71l231.704-193.47v409.882c0 .476-.067.931-.072 1.408zM202.434 214.482h619.13a85.115 85.115 0 0165.44 30.72 35.226 35.226 0 00-17.66 7.772L519.772 544.86a4.777 4.777 0 01-6.006.077l-373.96-297.83c-.91-.727-1.914-1.23-2.872-1.849a85.115 85.115 0 0165.5-30.776zm-82.233 532.014a85.1 85.1 0 01-3.072-22.395V319.923l247.296 196.941zm82.233 63.002a84.572 84.572 0 01-36.573-8.361l254.74-239.555 48.933 38.968a76.027 76.027 0 0095.744-1.106l54.927-45.864 253.266 238.167a84.736 84.736 0 01-51.891 17.771H202.435z"/></svg>