<svg class="icon" viewBox="0 0 1024 1024" xmlns="http://www.w3.org/2000/svg" width="200" height="200"><defs><style/></defs><path d="M512 957.44A445.44 445.44 0 11957.44 512 445.952 445.952 0 01512 957.44zm0-819.031A373.596 373.596 0 10885.596 512 374.016 374.016 0 00512 138.409zM409.38 714.921a35.922 35.922 0 01-35.922-35.922v-306.53a35.922 35.922 0 1171.844 0v306.535a35.922 35.922 0 01-35.922 35.922zm205.952 0a35.922 35.922 0 01-35.922-35.922v-306.53a35.922 35.922 0 1171.844 0v306.535a35.922 35.922 0 01-35.922 35.922z"/></svg>