<svg class="icon" viewBox="0 0 1024 1024" xmlns="http://www.w3.org/2000/svg" width="200" height="200"><defs><style/></defs><path d="M517.12 962.56a445.44 445.44 0 11445.44-445.44 445.952 445.952 0 01-445.44 445.44zm0-819.031A373.596 373.596 0 10890.716 517.12 374.016 374.016 0 00517.12 143.529zm139.51 554.404a35.804 35.804 0 01-26.046-11.177L504.09 553.636a76.329 76.329 0 01-21.095-52.808V327.926a35.922 35.922 0 1171.844 0v172.923a4.818 4.818 0 001.321 3.317l126.5 133.12a35.922 35.922 0 01-26.03 60.642z"/></svg>