<svg class="icon" viewBox="0 0 1024 1024" xmlns="http://www.w3.org/2000/svg" width="200" height="200"><defs><style/></defs><path d="M946.317 1024h-310.73c-42.373 0-77.684-35.31-77.684-77.683v-310.73c0-42.373 35.31-77.684 77.683-77.684h310.731c42.373 0 77.683 35.31 77.683 77.683v310.731c0 42.373-35.31 77.683-77.683 77.683zm0-353.103c0-21.187-14.124-42.373-42.372-42.373H670.897c-21.187 7.062-35.31 21.186-35.31 42.373v233.048c0 21.186 14.123 42.372 42.372 42.372h233.048c21.186 0 42.372-14.124 42.372-42.372V670.897h-7.062zm0-204.8h-310.73c-42.373 0-77.684-35.31-77.684-77.683V77.683C557.903 35.31 593.213 0 635.586 0h310.731C988.69 0 1024 35.31 1024 77.683v310.73c0 42.373-35.31 77.684-77.683 77.684zm0-346.042c0-21.186-14.124-42.372-42.372-42.372H670.897c-21.187 0-35.31 21.186-35.31 42.372v233.048c0 21.187 14.123 42.373 42.372 42.373h233.048c21.186 0 42.372-14.124 42.372-42.373V120.055h-7.062zM388.414 1024H77.683C35.31 1024 0 988.69 0 946.317v-310.73c0-42.373 35.31-77.684 77.683-77.684h310.73c42.373 0 77.684 35.31 77.684 77.683v310.731c0 42.373-35.31 77.683-77.683 77.683zm0-353.103c0-21.187-14.124-35.31-35.31-35.31h-233.05c-21.186 0-42.372 14.123-42.372 35.31v233.048c0 21.186 14.124 42.372 42.372 42.372h233.048c21.187 0 42.373-14.124 42.373-42.372l-7.062-233.048zm0-204.8H77.683C35.31 466.097 0 430.787 0 388.414V77.683C0 35.31 35.31 0 77.683 0h310.73c42.373 0 77.684 35.31 77.684 77.683v310.73c0 42.373-35.31 77.684-77.683 77.684zm0-346.042c0-21.186-14.124-42.372-42.373-42.372H120.055c-21.186 0-42.372 14.124-42.372 42.372v233.048c0 21.187 14.124 42.373 42.372 42.373h233.048c21.187 0 42.373-14.124 42.373-42.373l-7.062-233.048zm0 0"/></svg>