<svg class="icon" viewBox="0 0 1024 1024" xmlns="http://www.w3.org/2000/svg" width="200" height="200"><defs><style/></defs><path d="M730.726 901.228H240.348c-50.744 0-92.027-43.966-92.027-98.002V220.78c0-54.037 41.283-98.002 92.027-98.002h490.378c50.745 0 92.027 43.965 92.027 98.002a38.323 38.323 0 1076.642 0c0-96.333-75.669-174.7-168.669-174.7H240.348c-93 0-168.668 78.367-168.668 174.7v582.446c0 96.327 75.668 174.694 168.668 174.694h490.378a38.349 38.349 0 000-76.692zM486.815 283.832a38.333 38.333 0 00-38.318-38.348H219.535a38.349 38.349 0 000 76.692h228.977a38.333 38.333 0 0038.303-38.344zM219.55 436.265a38.349 38.349 0 000 76.692h175.298a38.349 38.349 0 000-76.692H219.535zm720.63 299.11a283.018 283.018 0 00-161.24-197.022 180.101 180.101 0 10-227.84 0 283.023 283.023 0 00-161.239 197.022 80.701 80.701 0 0016.123 68.096 81.674 81.674 0 0063.923 30.644h390.237a81.684 81.684 0 0063.923-30.644 80.691 80.691 0 0016.097-68.096zM665.005 295.337A103.537 103.537 0 11561.54 398.874a103.613 103.613 0 01103.465-103.537zm199.342 460.042a5.284 5.284 0 01-4.224 2.048H469.888a5.289 5.289 0 01-4.23-2.048 4.065 4.065 0 01-.941-3.635 205.05 205.05 0 01400.578 0 4.065 4.065 0 01-.947 3.635z"/></svg>