<svg xmlns="http://www.w3.org/2000/svg" width="100" height="99.986" viewBox="0 0 100 99.986">
  <defs>
    <style>
      .cls-1 {
        fill: #255bda;
      }
    </style>
  </defs>
  <g id="人脸" transform="translate(-29.764 -26.487)">
    <path id="路径_55" data-name="路径 55" class="cls-1" d="M228.478,282.217a4.871,4.871,0,0,1-4.591-6.508l.028-.07a16.478,16.478,0,0,1,2.407-4.059c.868-1.036,6.312-5.528,9.447-6.9.294-.126.714-.28,1.372-.532,3.471-1.3,5.528-2.2,6.1-2.687a1.243,1.243,0,0,0,.392-.812.507.507,0,0,0-.182-.406c-2-1.889-4.661-7.278-6.074-10.329a4.7,4.7,0,0,1-.308-.882,34.563,34.563,0,0,1-.9-9.251c.28-6.1,2.477-10.8,6.382-13.6a17.55,17.55,0,0,1,10.343-3.765,22.244,22.244,0,0,1,9.167,1.847,16.909,16.909,0,0,1,7.922,8.551c2.379,5.08,1.638,11.631.812,14.71a33.653,33.653,0,0,1-6.746,12.792,1.744,1.744,0,0,0-.476.756,1.039,1.039,0,0,0,.322.448c3.863,1.316,10.665,4.255,14.346,7.25,1.9,1.553,4.381,3.975,5.4,6.676a3.145,3.145,0,0,1,.112.336,4.861,4.861,0,0,1-.714,4.3,4.912,4.912,0,0,1-3.933,2ZM228.464,275.779Zm2.757-.028-.014.014,44.941-.1a19.061,19.061,0,0,0-2.015-1.889c-2.911-2.379-9.111-5.081-12.582-6.228a7.29,7.29,0,0,1-4.227-4.815,7.1,7.1,0,0,1,1.917-6.718,27.464,27.464,0,0,0,5.3-10.133c.784-2.911.9-7.516-.42-10.315a10.5,10.5,0,0,0-5-5.542,16.257,16.257,0,0,0-6.27-1.162,11.336,11.336,0,0,0-6.494,2.477l-.07.056c-5.57,3.961-3.359,14.528-3.037,15.955,2.015,4.339,3.9,7.572,4.577,8.216a6.879,6.879,0,0,1,2.2,5.22,7.615,7.615,0,0,1-2.617,5.528c-1.414,1.232-4.031,2.337-8.062,3.849-.406.154-.924.336-1.05.406a41.537,41.537,0,0,0-7.082,5.178ZM263.579,261.447Z" transform="translate(-173.969 -175.842)"/>
    <path id="路径_56" data-name="路径 56" class="cls-1" d="M118.218,126.6H95.139a3.849,3.849,0,0,1,0-7.7h23.079a3.847,3.847,0,0,0,3.849-3.849V95.833a3.849,3.849,0,1,1,7.7,0v19.23A11.564,11.564,0,0,1,118.218,126.6Zm0,0-57.691,0H41.3a11.552,11.552,0,0,1-11.533-11.533V95.833a3.849,3.849,0,0,1,7.7,0v19.23a3.847,3.847,0,0,0,3.849,3.849h19.23a3.842,3.842,0,1,1-.014,7.684Zm0,0M33.613,61.222a3.847,3.847,0,0,1-3.849-3.849V38.157A11.552,11.552,0,0,1,41.3,26.624h19.23a3.849,3.849,0,0,1,0,7.7H41.3a3.856,3.856,0,0,0-3.849,3.849V57.4a3.82,3.82,0,0,1-3.835,3.821Zm0,0" transform="translate(0 -0.123)"/>
    <path id="路径_57" data-name="路径 57" class="cls-1" d="M664.576,61.1a3.847,3.847,0,0,1-3.849-3.849V38.033a3.856,3.856,0,0,0-3.849-3.849H633.813a3.849,3.849,0,1,1,0-7.7h23.079a11.552,11.552,0,0,1,11.533,11.533V57.25a3.847,3.847,0,0,1-3.849,3.849Zm0,0" transform="translate(-538.674 0)"/>
  </g>
</svg>
