<svg class="icon" viewBox="0 0 1024 1024" xmlns="http://www.w3.org/2000/svg" width="200" height="200"><defs><style/></defs><path d="M512 241.95a173.112 173.112 0 10172.959 173.113A173.235 173.235 0 00512 241.951zm0 274.192a101.079 101.079 0 11100.987-101.079A101.15 101.15 0 01512 516.143zm255.642-366.904A365.742 365.742 0 00497.664 46.377a369.03 369.03 0 00-199.578 669.184 8.53 8.53 0 013.769 6.932v67.293a80.486 80.486 0 0080.353 80.435h259.584a80.486 80.486 0 0080.353-80.435v-67.252a9.006 9.006 0 014.07-7.209A370.043 370.043 0 00880.64 415.063a366.08 366.08 0 00-112.993-265.825zm-83.303 507.5a81.254 81.254 0 00-34.176 65.796v67.236a8.402 8.402 0 01-8.386 8.402H382.193a8.402 8.402 0 01-8.387-8.402v-67.292a80.83 80.83 0 00-33.905-65.582 296.96 296.96 0 01160.497-538.537q5.862-.225 11.689-.225a296.786 296.786 0 01296.581 296.929 297.871 297.871 0 01-124.324 241.674zm31.166 249.149H314.368a36.02 36.02 0 000 72.033H715.51a36.02 36.02 0 000-72.033z"/></svg>