<svg class="icon" viewBox="0 0 1024 1024" xmlns="http://www.w3.org/2000/svg" width="200" height="200"><defs><style/></defs><path d="M249.173 335.872c0 10.923 4.438 21.504 11.947 29.013 7.51 7.51 18.432 11.947 29.013 11.947 10.923 0 21.504-4.437 29.014-11.947 7.509-7.509 11.946-18.432 11.946-29.013 0-10.923-4.437-21.504-11.946-29.013-7.51-7.51-18.432-11.947-29.014-11.947-10.922 0-21.504 4.437-29.013 11.947-7.51 7.509-11.947 18.432-11.947 29.013zm320.171 212.992c0 8.533 3.413 16.725 9.557 22.87 5.803 5.802 14.336 9.557 22.87 9.557 8.533 0 16.725-3.414 22.869-9.558 5.803-5.802 9.557-14.336 9.557-22.869s-3.413-16.725-9.557-22.87c-5.803-5.802-14.336-9.557-22.87-9.557-8.533 0-16.725 3.414-22.869 9.558-5.802 5.802-9.557 14.336-9.557 22.869zM459.093 335.872c0 10.923 4.438 21.504 11.947 29.013 7.51 7.51 18.432 11.947 29.013 11.947 10.923 0 21.504-4.437 29.014-11.947 7.509-7.509 11.946-18.432 11.946-29.013 0-10.923-4.437-21.504-11.946-29.013-7.51-7.51-18.432-11.947-29.014-11.947-10.922 0-21.504 4.437-29.013 11.947-7.51 7.509-11.947 18.432-11.947 29.013zm0 0"/><path d="M842.07 27.307H181.93c-87.38 0-158.037 70.997-158.037 158.72v659.456c0 87.722 70.998 158.72 158.379 158.72h660.139c87.381 0 158.378-70.998 158.378-158.72V186.027c-.341-87.723-71.338-158.72-158.72-158.72zM390.143 681.643c-36.864 0-66.56-7.51-103.765-15.019l-103.424 51.883 29.696-89.088C138.58 577.536 94.208 510.976 94.208 429.397c0-140.97 133.461-251.904 296.277-251.904 145.75 0 273.067 88.747 298.667 207.872-9.557-1.024-18.773-1.706-28.672-1.706-140.63 0-251.904 105.13-251.904 234.496 0 21.504 3.413 42.325 9.216 62.122-8.875 1.024-18.09 1.366-27.648 1.366zM827.05 785.408l22.186 74.07L768 815.103c-29.696 7.51-59.392 15.019-88.747 15.019-140.97 0-251.904-96.256-251.904-215.04 0-118.443 110.934-215.04 251.904-215.04 133.12 0 251.563 96.597 251.563 215.04 0 66.56-44.373 125.952-103.765 170.325zm0 0"/><path d="M730.795 548.864c0 8.533 3.413 16.725 9.557 22.87 5.803 5.802 14.336 9.557 22.87 9.557 8.533 0 16.725-3.414 22.869-9.558 5.802-5.802 9.557-14.336 9.557-22.869s-3.413-16.725-9.557-22.87c-5.803-5.802-14.336-9.557-22.87-9.557-8.533 0-16.725 3.414-22.869 9.558-6.144 5.802-9.557 14.336-9.557 22.869zm0 0"/></svg>