<svg class="icon" viewBox="0 0 1024 1024" xmlns="http://www.w3.org/2000/svg" width="200" height="200"><defs><style/></defs><path d="M884.66 274.33c32.486-77.538 37.18-142.848-.559-180.736-27.648-27.761-86.282-48.082-208.491 12.047a435.02 435.02 0 00-157.046-29.276c-241.997 0-438.876 197.632-438.876 440.535a439.685 439.685 0 0028.42 155.75c-62.883 125.865-42.94 186.122-14.627 214.528 14.648 14.705 37.627 27.075 73.503 27.075 28.477 0 65.126-7.86 112.128-28.478a435.01 435.01 0 00239.452 71.665c241.997 0 438.876-197.632 438.876-440.535a439.05 439.05 0 00-72.78-242.575zm-50.213-130.888c9.134 9.17 9.4 32.578-1.024 67.031a442.404 442.404 0 00-76.16-62.976c46.618-15.805 70.073-11.192 77.184-4.055zm-315.904 3.415a367.534 367.534 0 01284.872 135.444C763.817 359.936 691.2 463.431 576.563 578.51 464.225 691.272 362.916 763.576 286.111 803.84a369.987 369.987 0 01-136.192-286.956c-.016-204.026 165.365-370.027 368.645-370.027zM143.135 837.366c-7.066-7.091-11.889-32.487 6.052-83.016a443.392 443.392 0 0065.904 80.343c-37.156 12.088-62.377 12.293-71.956 2.673zm375.429 49.587a365.148 365.148 0 01-165.581-39.578c86.687-51.292 182.497-127.943 273.234-219.023 88.893-89.216 168.52-188.631 220.81-279.168a368.82 368.82 0 0140.192 167.7c0 204.068-165.376 370.069-368.655 370.069z"/></svg>