<svg class="icon" viewBox="0 0 1024 1024" xmlns="http://www.w3.org/2000/svg" width="200" height="200"><defs><style/></defs><path d="M910.275.347H241.399c-61.99 0-112.42 50.43-112.42 112.42v49.088h-15.254c-61.99 0-112.42 50.43-112.42 112.42v636.958c0 61.99 50.43 112.42 112.42 112.42h796.55c61.99 0 112.42-50.43 112.42-112.42V112.766c0-61.99-50.43-112.42-112.42-112.42zm48.582 910.887c0 26.787-21.795 48.582-48.582 48.582h-796.55c-26.787 0-48.582-21.795-48.582-48.582V274.276c0-26.787 21.795-48.583 48.582-48.583h15.255v641.041c0 17.627 14.291 31.918 31.918 31.918s31.917-14.291 31.917-31.918V112.766c0-26.787 21.796-48.582 48.583-48.582h668.876c26.787 0 48.582 21.795 48.582 48.582v798.468z"/><path d="M324.915 422.868h157.597c35.2 0 63.837-28.638 63.837-63.837V195.45c0-35.198-28.637-63.836-63.837-63.836H324.915c-35.199 0-63.837 28.637-63.837 63.836v163.582c.001 35.2 28.638 63.837 63.837 63.837zm157.606-63.837l-.009 31.918v-31.918h.009zM324.915 195.45h157.597l-.093 163.582H324.915V195.45zm559.133 2.074H628.7c-8.777 0-15.96 7.181-15.96 15.96 0 8.777 7.182 15.959 15.96 15.959h255.348c8.777 0 15.959-7.182 15.959-15.96s-7.182-15.96-15.96-15.96zm0 95.755H628.7c-8.777 0-15.96 7.181-15.96 15.959 0 8.778 7.182 15.96 15.96 15.96h255.348c8.777 0 15.959-7.182 15.959-15.96s-7.182-15.96-15.96-15.96zm0 95.754H628.7c-8.777 0-15.96 7.182-15.96 15.96s7.182 15.96 15.96 15.96h255.348c8.777 0 15.959-7.182 15.959-15.96 0-8.777-7.182-15.96-15.96-15.96zm0 95.757h-610.44c-8.777 0-15.96 7.18-15.96 15.959 0 8.778 7.182 15.96 15.96 15.96h610.44c8.777 0 15.959-7.182 15.959-15.96s-7.182-15.96-15.96-15.96zm0 95.754h-610.44c-8.777 0-15.96 7.182-15.96 15.96s7.182 15.96 15.96 15.96h610.44c8.777 0 15.959-7.182 15.959-15.96 0-8.777-7.182-15.96-15.96-15.96zm0 95.756H628.7c-8.777 0-15.96 7.182-15.96 15.96 0 8.777 7.182 15.959 15.96 15.959h255.348c8.777 0 15.959-7.182 15.959-15.96 0-8.777-7.182-15.959-15.96-15.959zm0 95.755H628.7c-8.777 0-15.96 7.181-15.96 15.96 0 8.777 7.182 15.959 15.96 15.959h255.348c8.777 0 15.959-7.182 15.959-15.96s-7.182-15.96-15.96-15.96zm0 95.755H628.7c-8.777 0-15.96 7.181-15.96 15.96 0 8.777 7.182 15.959 15.96 15.959h255.348c8.777 0 15.959-7.182 15.959-15.96 0-8.777-7.182-15.96-15.96-15.96zM523.968 676.3H268.62c-8.777 0-15.96 7.182-15.96 15.96 0 8.777 7.182 15.959 15.96 15.959h255.347c8.777 0 15.959-7.182 15.959-15.96 0-8.777-7.182-15.959-15.96-15.959zm0 95.755H268.62c-8.777 0-15.96 7.181-15.96 15.96 0 8.777 7.182 15.959 15.96 15.959h255.347c8.777 0 15.959-7.182 15.959-15.96s-7.182-15.96-15.96-15.96zm0 95.755H268.62c-8.777 0-15.96 7.181-15.96 15.96 0 8.777 7.182 15.959 15.96 15.959h255.347c8.777 0 15.959-7.182 15.959-15.96 0-8.777-7.182-15.96-15.96-15.96z"/></svg>