<svg class="icon" viewBox="0 0 1024 1024" xmlns="http://www.w3.org/2000/svg" width="200" height="200"><defs><style/></defs><path d="M588.326 896h-360.77c-31.384 0-56.89-25.6-56.89-57.173V185.173c0-31.478 25.506-57.173 56.89-57.173h568.888c31.384 0 56.89 25.6 56.89 57.173v488.012h-42.667V185.173c0-7.87-6.543-14.506-14.223-14.506H227.556c-7.68 0-14.223 6.637-14.223 14.506v653.654c0 7.87 6.543 14.506 14.223 14.506h360.77V896z"/><path d="M312.036 273.92h400.023v42.667H312.036zm0 134.353h400.023v42.666H312.036zM652.61 588.99c27.686 0 53.76 10.903 73.292 30.625 19.722 19.816 30.53 46.175 30.53 74.335 0 28.065-10.808 54.518-30.53 74.334-19.626 19.722-45.606 30.626-73.292 30.626s-53.76-10.904-73.291-30.626c-19.722-19.816-30.53-46.174-30.53-74.334s10.808-54.519 30.53-74.335c19.626-19.722 45.605-30.625 73.291-30.625m0-42.667c-80.877 0-146.489 66.086-146.489 147.627 0 81.54 65.612 147.626 146.49 147.626S799.098 775.49 799.098 693.95c0-81.541-65.517-147.627-146.489-147.627zm-153.126-3.224H312.51v42.382h154.832a219.85 219.85 0 0132.142-42.382z"/><path d="M467.627 585.956H312.036v-43.33h188.681l-.758.758a214.59 214.59 0 00-32.143 42.287l-.19.285zm-154.643-.949h154.074a214.734 214.734 0 0131.383-41.434H312.984v41.434zM832 896c-5.5 0-10.999-2.086-15.17-6.258l-75.757-76.326c-8.344-8.343-8.25-21.902.094-30.15 8.344-8.345 21.903-8.25 30.152.094l75.757 76.326c8.343 8.344 8.248 21.902-.095 30.151C842.904 893.914 837.404 896 832 896zM437.95 694.708c0-6.068.284-11.947.758-17.92H312.51v42.382h126.862c-.948-7.964-1.422-16.118-1.422-24.462z"/><path d="M439.94 719.74H312.037v-43.331h127.241v.474c-.474 5.973-.758 12.041-.758 17.825 0 8.06.474 16.308 1.327 24.462l.095.57zm-126.956-.949h125.914c-.854-8.06-1.328-16.118-1.328-23.988 0-5.689.19-11.567.664-17.446h-125.25v41.434z"/></svg>