<svg class="icon" viewBox="0 0 1024 1024" xmlns="http://www.w3.org/2000/svg" width="200" height="200"><defs><style/></defs><path d="M58.625 911.375v-841.5c0-4.625 3.625-8.5 8.125-8.5h677c4.5 0 8.125 3.75 8.125 8.5v339.5h58.75v-339.5c0-38.5-30-69.875-66.875-69.875H66.875C30 0 0 31.375 0 69.875v841.5c0 38.5 30 69.875 66.75 69.875h379v-61.5h-379c-4.5 0-8.125-3.75-8.125-8.375z" opacity=".8"/><path d="M256 603.125c0 16.5 13.625 29.875 30.375 29.875h121.25c16.75 0 30.375-13.375 30.375-29.875s-13.625-29.875-30.375-29.875h-121.25c-16.75 0-30.375 13.375-30.375 29.875zM635.375 256h-349C269.625 256 256 269.375 256 285.875c0 16.625 13.625 29.875 30.375 29.875h349c16.75 0 30.25-13.375 30.25-29.875.125-16.5-13.5-29.875-30.25-29.875zm30.375 185.5c0-16.5-13.5-29.875-30.25-29.875H286.375C269.625 411.625 256 425 256 441.5s13.625 29.875 30.375 29.875h349c16.75 0 30.375-13.375 30.375-29.875zM768 512c-141.375 0-256 114.5-256 256 0 141.375 114.625 256 256 256s256-114.625 256-256c0-141.5-114.625-256-256-256zm0 448c-106 0-192-86-192-192s86-192 192-192 192 86 192 192-86 192-192 192z" opacity=".8"/><path d="M873.375 681.375c12.5-12.125 32.5-12 44.875.375s12.5 32.25.375 44.875l-160 160c-12.5 12.5-32.75 12.5-45.25 0l-96-96c-12.125-12.5-12-32.5.375-44.875s32.25-12.5 44.875-.375L736 818.75l137.375-137.375z" opacity=".8"/></svg>