<svg xmlns="http://www.w3.org/2000/svg" width="110" height="109.5"><defs><style>.cls-1{fill:none;stroke:#448dff;stroke-linecap:round;stroke-linejoin:round;stroke-width:6px}</style></defs><g id="组_345" data-name="组 345" transform="translate(-9 167)"><path id="直线_123" data-name="直线 123" class="cls-1" transform="translate(16 -128)" d="M0 0h96"/><path id="直线_124" data-name="直线 124" class="cls-1" transform="translate(25 -90)" d="M0 0h26"/><path id="直线_125" data-name="直线 125" class="cls-1" transform="translate(25 -110)" d="M0 0h26"/><path id="路径_64" data-name="路径 64" class="cls-1" d="M64-68H22a10 10 0 01-10-10v-68a10 10 0 0110-10h84a10 10 0 0110 10v34"/><path id="直线_126" data-name="直线 126" class="cls-1" transform="translate(41 -164)" d="M0 0v22"/><path id="直线_127" data-name="直线 127" class="cls-1" transform="translate(87 -164)" d="M0 0v22"/><path id="直线_128" data-name="直线 128" class="cls-1" transform="translate(93 -95)" d="M0 0v12"/><path id="直线_129" data-name="直线 129" class="cls-1" transform="translate(94 -82)" d="M8.999 8.999L0 0"/><circle id="椭圆_42" data-name="椭圆 42" class="cls-1" cx="22.5" cy="22.5" r="22.5" transform="translate(70.5 -105.5)"/></g></svg>